<?xml version="1.0" encoding="UTF-8" standalone="no"?>
<!DOCTYPE svg PUBLIC "-//W3C//DTD SVG 1.1//EN" "http://www.w3.org/Graphics/SVG/1.1/DTD/svg11.dtd">
<svg width="100%" height="100%" viewBox="0 0 262 226" version="1.1" xmlns="http://www.w3.org/2000/svg" xmlns:xlink="http://www.w3.org/1999/xlink" xml:space="preserve" xmlns:serif="http://www.serif.com/" style="fill-rule:evenodd;clip-rule:evenodd;stroke-linejoin:round;stroke-miterlimit:10;">
    <g transform="matrix(1,0,0,1,-21.3676,-332.487)">
        <g transform="matrix(1.11437,0,0,1.11437,-60.0578,-109.811)">
            <g id="line-12" serif:id="line 12" transform="matrix(1,0,0,1,122.292,402.514)">
                <path d="M0,190.924C0,190.924 2.461,48.253 -34.971,64.98C-72.313,81.667 22.868,159.542 32.138,159.542C49.443,159.542 122.024,0 67.986,0C13.948,0 86.494,159.542 103.799,159.542C113.07,159.542 208.251,81.667 170.909,64.98C133.476,48.253 135.938,190.924 135.938,190.924C135.938,190.924 101.882,183.324 67.968,183.324C34.055,183.324 0,190.924 0,190.924Z" style="fill:none;stroke:rgb(231,193,87);stroke-width:11.22px;"/>
            </g>
        </g>
    </g>
</svg>
