<?xml version="1.0" encoding="UTF-8" standalone="no"?>
<!DOCTYPE svg PUBLIC "-//W3C//DTD SVG 1.1//EN" "http://www.w3.org/Graphics/SVG/1.1/DTD/svg11.dtd">
<svg width="100%" height="100%" viewBox="0 0 223 223" version="1.1" xmlns="http://www.w3.org/2000/svg" xmlns:xlink="http://www.w3.org/1999/xlink" xml:space="preserve" xmlns:serif="http://www.serif.com/" style="fill-rule:evenodd;clip-rule:evenodd;stroke-linejoin:round;stroke-miterlimit:10;">
    <g transform="matrix(1,0,0,1,-1186.69,-656.226)">
        <g transform="matrix(1.11437,0,0,1.11437,-60.0578,-109.811)">
            <g id="line-9" serif:id="line 9" transform="matrix(1,0,0,1,1129.71,693.027)">
                <path d="M0,188.432C1.861,140.859 -2.127,69.633 -5.315,45.447C35.082,68.568 73.086,148.566 40.131,148.566C7.175,148.566 66.708,19.401 89.033,0C111.357,19.401 170.89,148.566 137.934,148.566C104.979,148.566 142.983,68.568 183.381,45.447C180.192,69.633 176.204,140.859 178.065,188.432C178.065,188.432 140.858,179.396 89.033,179.396C37.208,179.396 0,188.432 0,188.432Z" style="fill:none;stroke:rgb(231,193,87);stroke-width:11.22px;"/>
            </g>
        </g>
    </g>
</svg>
