<?xml version="1.0" encoding="UTF-8" standalone="no"?>
<!DOCTYPE svg PUBLIC "-//W3C//DTD SVG 1.1//EN" "http://www.w3.org/Graphics/SVG/1.1/DTD/svg11.dtd">
<svg width="100%" height="100%" viewBox="0 0 241 219" version="1.1" xmlns="http://www.w3.org/2000/svg" xmlns:xlink="http://www.w3.org/1999/xlink" xml:space="preserve" xmlns:serif="http://www.serif.com/" style="fill-rule:evenodd;clip-rule:evenodd;stroke-linejoin:round;stroke-miterlimit:10;">
    <g transform="matrix(1,0,0,1,-390.686,-660.208)">
        <g transform="matrix(1.11437,0,0,1.11437,-60.0578,-109.811)">
            <g id="line-5" serif:id="line 5">
                <g transform="matrix(1,0,0,1,478.22,696.6)">
                    <path d="M0,184.859L34.293,0L68.587,184.859L0,184.859Z" style="fill:none;stroke:rgb(231,193,87);stroke-width:11.22px;"/>
                </g>
                <g transform="matrix(1,0,0,1,512.514,756.056)">
                    <path d="M0,125.403L47.463,0L68.587,125.403L0,125.403Z" style="fill:none;stroke:rgb(231,193,87);stroke-width:11.22px;"/>
                </g>
                <g transform="matrix(1,0,0,1,546.807,781.036)">
                    <path d="M0,100.423L68.128,0L52.141,100.423L0,100.423Z" style="fill:none;stroke:rgb(231,193,87);stroke-width:11.22px;"/>
                </g>
                <g transform="matrix(1,0,0,1,512.514,756.056)">
                    <path d="M0,125.403L-47.464,0L-68.587,125.403L0,125.403Z" style="fill:none;stroke:rgb(231,193,87);stroke-width:11.22px;"/>
                </g>
                <g transform="matrix(1,0,0,1,478.22,781.036)">
                    <path d="M0,100.423L-68.128,0L-52.141,100.423L0,100.423Z" style="fill:none;stroke:rgb(231,193,87);stroke-width:11.22px;"/>
                </g>
            </g>
        </g>
    </g>
</svg>
