<svg width="512" height="512" viewBox="0 0 512 512" xmlns="http://www.w3.org/2000/svg"><defs><linearGradient x1="50%" y1="35.945%" x2="81.291%" y2="76.295%" id="a"><stop stop-color="#FFF" offset="0%"/><stop stop-color="#CCC" offset="100%"/></linearGradient></defs><g id="Berlin" stroke="none" stroke-width="1" fill="none" fill-rule="evenodd"><g id="bk"><path d="M291.918 111.663c-3.618 3.427-8.426 6.853-14.424 10.28-5.999 3.426-12.996 5.14-20.994 5.14-13.9 0-25.611-5.14-35.132-15.42h-2.57v23.129l30.847 117.068h13.71l30.848-117.068v-23.129M101.69 407.19l46.129 12.85c30.752 8.565 66.98.951 108.681-22.843 41.511 23.794 77.738 31.408 108.681 22.842l46.415-12.849 22.279-15.133v-32.55c-27.802 24.174-56.983 35.739-87.545 34.692-30.562-1.047-60.506-10.613-89.83-28.696-27.61 18.274-57.459 27.506-89.544 27.696-32.086.19-61.362-10.47-87.83-31.98v30.838a310.64 310.64 0 0022.564 15.133" id="bk-bg" fill="url(#a)"/><path d="M300.487 97.958h19.422v37.405h51.413l16.852 3.997c11.235 2.665 23.898 8.138 37.989 16.418 14.09 8.28 27.563 20.225 40.416 35.834 12.853 15.61 20.993 36.358 24.421 62.247v57.677l-6.284 24.699c-4.189 16.465-21.136 34.977-50.841 55.536V480H79.125v-88.23c-29.895-20.558-46.89-39.07-50.984-55.535L22 311.536v-57.677c3.237-25.889 11.282-46.637 24.136-62.247 12.853-15.609 26.372-27.553 40.559-35.834 14.186-8.28 26.896-13.753 38.13-16.418l16.853-3.997h51.413V97.958h19.422c-2.475-5.14-3.713-10.85-3.713-17.132 0-12.944 4.57-24.318 13.71-34.121S242.98 32 256.5 32c13.33 0 24.612 4.902 33.847 14.705 9.235 9.803 13.853 21.177 13.853 34.121 0 6.282-1.238 11.992-3.713 17.132m-8.57 13.705c-3.617 3.427-8.425 6.853-14.423 10.28-5.999 3.426-12.996 5.14-20.994 5.14-13.9 0-25.611-5.14-35.132-15.42h-2.57v23.129l30.847 117.068h13.71l30.848-117.068v-23.129M101.69 407.19l46.129 12.85c30.752 8.565 66.98.951 108.681-22.843 41.511 23.794 77.738 31.408 108.681 22.842l46.415-12.849 22.279-15.133v-32.55c-27.802 24.174-56.983 35.739-87.545 34.692-30.562-1.047-60.506-10.613-89.83-28.696-27.61 18.274-57.459 27.506-89.544 27.696-32.086.19-61.362-10.47-87.83-31.98v30.838a310.64 310.64 0 0022.564 15.133" fill="#000"/></g></g></svg>