<svg width="512" height="512" viewBox="0 0 512 512" xmlns="http://www.w3.org/2000/svg"><g id="Berlin" stroke="none" stroke-width="1" fill="none" fill-rule="evenodd"><g id="bp" fill="#000"><path d="M228.054 143.931c-11.297-9.112-16.946-20.8-16.946-35.062 0-12.48 4.36-23.079 13.081-31.795C232.91 68.358 243.514 64 256 64c12.288 0 22.842 4.358 31.662 13.074 8.82 8.716 13.23 19.315 13.23 31.795 0 14.46-5.649 26.148-16.946 35.062 17.441 5.349 31.86 15.254 43.257 29.715 11.396 14.46 17.094 30.903 17.094 49.325 0 32.29-14.666 56.26-44 71.909 31.514 7.726 58.617 22.583 81.311 44.571 22.694 21.989 35.626 47.048 38.797 75.178.199 1.188.298 4.457.298 9.805l.297 15.749-.297 39.817H91.297c-.198 0-.297-5.893-.297-17.68v-37.737c0-4.853.1-8.073.297-9.657 3.568-29.12 16.798-54.576 39.69-76.366 22.891-21.79 50.193-36.45 81.905-43.977-29.333-16.046-44-39.916-44-71.612 0-18.422 5.45-34.963 16.351-49.622 10.703-14.065 24.973-23.87 42.811-29.418" id="Shape"/></g></g></svg>