<svg width="512" height="512" viewBox="0 0 512 512" xmlns="http://www.w3.org/2000/svg"><defs><linearGradient x1="50%" y1="35.945%" x2="81.291%" y2="76.295%" id="a"><stop stop-color="#FFF" offset="0%"/><stop stop-color="#CCC" offset="100%"/></linearGradient></defs><g id="Berlin" stroke="none" stroke-width="1" fill="none" fill-rule="evenodd"><g id="wb"><path d="M221.217 402.394H131.38L80.084 421.93v29.306l42.883-16.281h98.25m70.295-32.02v31.206h97.707l43.425 17.095V421.93l-50.482-18.995M228.816 153.022l-17.913.679c-11.942.452-25.105 2.713-39.49 6.784-14.384 4.07-27.683 10.718-39.897 19.944-12.213 9.226-18.591 22.612-19.134 40.16v50.2l5.835 18.451c3.89 12.302 12.53 26.683 25.92 43.145h224.998l14.927-22.25c9.952-14.834 16.104-28.492 18.456-40.974v-48.03c0-6.512-2.533-14.833-7.6-24.964l-63.78 63.496-50.483-50.2 50.754-50.742c.543-.181-4.026-1.312-13.706-3.392s-20.763-2.85-33.248-2.307l-27.412-15.467M225.559 91.97l31.212 31.476 31.484-31.476-31.484-31.477" id="wb-bg" fill="url(#a)"/><path d="M241.844 382.042v72.451h-113.72L60 480v-72.18l68.124-25.778m93.093 20.352H131.38L80.084 421.93v29.306l42.883-16.281h98.25m70.295-32.02v31.206h97.707l43.425 17.095V421.93l-50.482-18.995M228.816 153.022l-17.913.679c-11.942.452-25.105 2.713-39.49 6.784-14.384 4.07-27.683 10.718-39.897 19.944-12.213 9.226-18.591 22.612-19.134 40.16v50.2l5.835 18.451c3.89 12.302 12.53 26.683 25.92 43.145h224.998l14.927-22.25c9.952-14.834 16.104-28.492 18.456-40.974v-48.03c0-6.512-2.533-14.833-7.6-24.964l-63.78 63.496-50.483-50.2 50.754-50.742c.543-.181-4.026-1.312-13.706-3.392s-20.763-2.85-33.248-2.307l-27.412-15.467M257.314 32l59.439 59.697-31.484 31.477 4.614 9.226c21.713 0 40.305 2.94 55.775 8.819l23.205 8.819-59.71 59.697 22.527 22.522 64.596-64.31c12.665 9.768 20.174 20.984 22.526 33.647l3.529 18.995v50.471c-3.257 20.08-9.59 36.858-18.999 50.336L389.22 341.61v10.854H124.867V339.17c-14.475-17.186-23.522-32.743-27.141-46.672l-5.428-20.894V221.13c.18-22.793 7.147-40.205 20.898-52.235 13.752-12.03 28.77-20.758 45.054-26.185 16.285-5.427 31.212-8.502 44.782-9.226l20.356-1.085 4.885-8.955-31.212-31.205m74.095 289.802h113.72L453 407.821V480l-68.124-25.507h-113.72M225.56 91.969l31.212 31.476 31.484-31.476-31.484-31.477" fill="#000"/></g></g></svg>