<svg width="512" height="512" viewBox="0 0 512 512" xmlns="http://www.w3.org/2000/svg"><defs><linearGradient x1="50%" y1="35.945%" x2="81.291%" y2="76.295%" id="a"><stop stop-color="#FFF" offset="0%"/><stop stop-color="#CCC" offset="100%"/></linearGradient></defs><g id="Berlin" stroke="none" stroke-width="1" fill="none" fill-rule="evenodd"><g id="wp"><path d="M256.595 310.629c-29.334 0-60.5 10.152-93.5 30.457-33 20.304-49.5 48.186-49.5 83.645v30.012l285.108-.297v-30.012c-.397-34.468-16.798-62.053-49.203-82.754-32.405-20.701-63.374-31.051-92.905-31.051m.594-26.743c19.424 0 35.23-5.943 47.42-17.829 12.188-11.886 18.283-26.644 18.283-44.274 0-17.433-5.946-32.587-17.838-45.463-11.892-12.876-27.55-19.314-46.973-19.314-19.622 0-35.676 6.438-48.162 19.314-12.487 12.876-18.73 28.03-18.73 45.463 0 17.63 6.095 32.388 18.284 44.274 12.19 11.886 28.095 17.829 47.716 17.829M256 85.69c-15.46 0-23.19 7.726-23.19 23.178 0 15.451 7.73 23.177 23.19 23.177s23.19-7.726 23.19-23.177c0-15.452-7.73-23.178-23.19-23.178" id="wp-bg" fill="url(#a)"/><path d="M256.595 310.629c-29.334 0-60.5 10.152-93.5 30.457-33 20.304-49.5 48.186-49.5 83.645v30.012l285.108-.297v-30.012c-.397-34.468-16.798-62.053-49.203-82.754-32.405-20.701-63.374-31.051-92.905-31.051m-28.54-166.698c-11.298-9.112-16.947-20.8-16.947-35.062 0-12.48 4.36-23.079 13.081-31.795C232.91 68.358 243.514 64 256 64c12.288 0 22.842 4.358 31.662 13.074 8.82 8.716 13.23 19.315 13.23 31.795 0 14.46-5.649 26.148-16.946 35.062 17.441 5.349 31.86 15.254 43.257 29.715 11.396 14.46 17.094 30.903 17.094 49.325 0 32.29-14.666 56.26-44 71.909 31.514 7.726 58.617 22.583 81.311 44.571 22.694 21.989 35.626 47.048 38.797 75.178.199 1.188.298 4.457.298 9.805l.297 15.749-.297 39.817H91.297c-.198 0-.297-5.893-.297-17.68v-37.737c0-4.853.1-8.073.297-9.657 3.568-29.12 16.798-54.576 39.69-76.366 22.891-21.79 50.193-36.45 81.905-43.977-29.333-16.046-44-39.916-44-71.612 0-18.422 5.45-34.963 16.351-49.622 10.703-14.065 24.973-23.87 42.811-29.418m29.135 139.955c19.424 0 35.23-5.943 47.42-17.829 12.188-11.886 18.283-26.644 18.283-44.274 0-17.433-5.946-32.587-17.838-45.463-11.892-12.876-27.55-19.314-46.973-19.314-19.622 0-35.676 6.438-48.162 19.314-12.487 12.876-18.73 28.03-18.73 45.463 0 17.63 6.095 32.388 18.284 44.274 12.19 11.886 28.095 17.829 47.716 17.829M256 85.69c-15.46 0-23.19 7.726-23.19 23.178 0 15.451 7.73 23.177 23.19 23.177s23.19-7.726 23.19-23.177c0-15.452-7.73-23.178-23.19-23.178" fill="#000"/></g></g></svg>