<svg width="512" height="512" viewBox="0 0 512 512" xmlns="http://www.w3.org/2000/svg"><defs><linearGradient x1="50%" y1="35.945%" x2="81.291%" y2="76.295%" id="a"><stop stop-color="#FFF" offset="0%"/><stop stop-color="#CCC" offset="100%"/></linearGradient></defs><g id="Berlin" stroke="none" stroke-width="1" fill="none" fill-rule="evenodd"><g id="wq"><path d="M256 142.754l-47.35 213.202-63.135-155.887-22.706 123.214c-9.969-18.828-26.121-36.549-48.458-53.162 4.8 22.705 9.645 45.455 14.537 68.252 4.892 22.797 9.83 45.548 14.815 68.252h91.378c8.492 0 18.83-4.014 31.013-12.044 12.184-8.03 22.153-16.752 29.906-26.166 7.753 9.414 17.676 18.136 29.767 26.166 12.092 8.03 22.476 12.044 31.152 12.044h91.378l29.352-137.058c-18.83 12.368-34.982 30.273-48.458 53.716L366.485 200.07 303.35 355.956M256 458.68h152.297v-30.458h-83.625c-15.69-.369-29.536-4.199-41.535-11.49-12-7.292-21.045-14.629-27.137-22.013-9.784 12.183-21.275 20.813-34.475 25.89-13.199 5.075-24.598 7.613-34.197 7.613h-83.625v30.458" id="wq-bg" fill="url(#a)"/><path d="M256 142.754l-47.35 213.202-63.135-155.887-22.706 123.214c-9.969-18.828-26.121-36.549-48.458-53.162 4.8 22.705 9.645 45.455 14.537 68.252 4.892 22.797 9.83 45.548 14.815 68.252h91.378c8.492 0 18.83-4.014 31.013-12.044 12.184-8.03 22.153-16.752 29.906-26.166 7.753 9.414 17.676 18.136 29.767 26.166 12.092 8.03 22.476 12.044 31.152 12.044h91.378l29.352-137.058c-18.83 12.368-34.982 30.273-48.458 53.716L366.485 200.07 303.35 355.956M256 480H79.889v-86.942L27 169.612c17.722 29.903 32.629 47.901 44.72 53.992 12.092 6.092 23.86 17.998 35.305 35.719 5.908-33.227 11.077-59.208 15.507-77.944 4.43-18.735 9.046-41.025 13.845-66.867l70.057 155.61L256 32l49.566 238.121 70.057-155.61 25.475 146.75c9.969-16.06 22.106-27.596 36.413-34.61 14.307-7.015 30.136-26.028 47.489-57.04l-52.889 223.447V480M256 458.68h152.297v-30.458h-83.625c-15.69-.369-29.536-4.199-41.535-11.49-12-7.292-21.045-14.629-27.137-22.013-9.784 12.183-21.275 20.813-34.475 25.89-13.199 5.075-24.598 7.613-34.197 7.613h-83.625v30.458" fill="#000"/></g></g></svg>