<svg xmlns="http://www.w3.org/2000/svg" xmlns:serif="http://www.serif.com/" id="can" width="48" height="32" fill-rule="evenodd" stroke-linejoin="round" stroke-miterlimit="1.414" clip-rule="evenodd" viewBox="0 0 36 24"><path id="Canada" fill="#fff" d="M0-6h36v36H0z" serif:id="Canada CAN"/><clipPath id="a"><path d="M0-6h36v36H0z"/></clipPath><g clip-path="url(#a)"><path fill="#fff" fill-rule="nonzero" d="M9 0h18v24H9z"/><path fill="#bf0a30" fill-rule="nonzero" d="M0 0h9v24H0V0zm27 0h9v24h-9V0zM11.692 11.597l-.699.226 3.252 2.692c.246.693-.086.897-.297 1.26l3.531-.423-.092 3.352.731-.02-.159-3.324 3.534.395c-.219-.436-.413-.667-.211-1.364l3.25-2.551-.569-.194c-.465-.339.201-1.631.302-2.446 0 0-1.898.615-2.022.293l-.484-.876-1.726 1.79c-.189.042-.269-.029-.313-.179l.797-3.739-1.263.67c-.105.043-.211.006-.281-.11l-1.215-2.3-1.252 2.388c-.095.086-.189.096-.268.038l-1.202-.637.722 3.71c-.058.147-.195.189-.357.109l-1.65-1.769c-.216.326-.363.86-.648.979-.285.112-1.241-.226-1.882-.358.219.745.903 1.983.47 2.389l.001-.001z"/></g></svg>