<?xml version="1.0" encoding="UTF-8" standalone="no"?><!DOCTYPE svg PUBLIC "-//W3C//DTD SVG 1.1//EN" "http://www.w3.org/Graphics/SVG/1.1/DTD/svg11.dtd"><svg width="48" height="32" viewBox="0 0 48 32" version="1.1" xmlns="http://www.w3.org/2000/svg" xmlns:xlink="http://www.w3.org/1999/xlink" xml:space="preserve" xmlns:serif="http://www.serif.com/" style="fill-rule:evenodd;clip-rule:evenodd;stroke-linejoin:round;stroke-miterlimit:1.41421;"><g><path d="M23.928,0c-5.305,0 -10.288,1.106 -14.721,3.456c2.597,1.283 6.094,2.33 9.073,2.951c0.116,-0.113 0.218,-0.22 0.314,-0.341c-0.059,-0.27 -0.185,-0.694 -0.224,-0.921c0.612,-0.415 2.534,-1.185 2.534,-1.185l-0.25,-2.322l1.009,-0.357l0.951,2.301c6.576,-0.556 7.261,2.302 7.644,3.139c3.26,-0.477 6.571,-1.504 9.069,-2.882c-3.566,-2.077 -9.036,-3.839 -15.399,-3.839Z"/><path d="M3.07,8.356c1.728,0.545 5.214,1.535 11.126,2.425c0.503,-0.758 2.878,-3.053 3.452,-3.718c-4.635,-0.88 -8.212,-2.42 -9.506,-3.001c-1.702,1.004 -3.639,2.531 -5.072,4.294Zm27.536,3.097c6.933,-0.374 12.575,-1.779 14.719,-2.521c-1.302,-1.769 -3.368,-3.486 -5.052,-4.524c-1.204,0.653 -4.464,2.161 -9.774,2.962c0.507,1.272 0.107,4.083 0.107,4.083Z"/><path d="M0,16.046c1.835,0 17.829,0 17.829,0c1.275,-2.19 4.161,-3.596 4.161,-3.596c0,0 -1.915,-0.113 -3.041,-0.166c-0.866,0.689 -2.694,2.456 -4.587,-0.587c-4.021,-0.49 -8.867,-1.586 -11.893,-2.559c-1.836,2.524 -2.403,4.975 -2.469,6.908Zm48,0c-0.026,-1.976 -0.726,-4.181 -1.997,-6.145c-1.304,0.366 -6.665,2.012 -15.591,2.496c-0.208,1.227 -0.648,2.589 -0.741,3.649c0.798,-0.003 16.913,0 18.329,0Z"/><path d="M0.006,16.978c0.757,-0.009 17.264,0.004 17.264,0.004c-0.383,0.733 -0.705,2.354 -0.628,3.21c-9.342,0.812 -13.438,2.293 -14.747,2.69c-0.961,-1.559 -1.772,-3.462 -1.889,-5.904Zm29.571,0.004c0.661,-0.002 17.861,-0.002 18.417,0c-0.123,2.694 -1.215,4.844 -2.101,6.164c-1.117,-0.318 -6.725,-2.12 -15.372,-2.897c-0.41,-0.534 -1.084,-1.806 -0.944,-3.267Z"/><path d="M2.44,23.699c0.945,-0.353 6.191,-2.05 14.287,-2.637c0.058,0.874 0.347,1.88 0.347,1.88c0,0 13.212,-0.007 13.648,-0.002c0.682,-0.741 0.325,-1.755 0.325,-1.755c6.527,0.508 13.083,2.376 14.257,2.786c-1.294,1.718 -3.341,3.513 -5.517,4.779c-1.811,-0.691 -6.559,-2.814 -12.895,-3.322c0.688,-0.964 3.216,-1.189 3.834,-1.279l0.003,-0.914l-13.658,-0.003l0.003,0.921c0,0 2.934,0.035 3.642,1.209c-7.881,0.653 -11.969,3.193 -12.454,3.506c-2.248,-1.316 -4.394,-3.135 -5.822,-5.169Z"/><path d="M38.679,29.373c-2.046,1.107 -4.714,2.078 -7.196,2.627l0,-3.844c-0.877,0.01 -1.155,0.029 -1.702,0.028c-1.206,-0.005 -1.936,-0.117 -2.535,-0.541c-0.645,-0.458 -0.7,-1.149 -0.625,-1.474c6.876,0.622 12.058,3.204 12.058,3.204Z"/><path d="M16.052,31.944c-2.582,-0.599 -4.988,-1.529 -6.9,-2.574c2.064,-1.394 6.255,-2.956 11.918,-3.31c0.064,0.212 0.122,1.161 -0.609,1.632c-0.989,0.635 -4.409,0.433 -4.409,0.433l0,3.819Z"/></g></svg>
