<svg width="512" height="512" viewBox="0 0 512 512" xmlns="http://www.w3.org/2000/svg"><defs><linearGradient x1="50%" y1="35.945%" x2="81.291%" y2="76.295%" id="a"><stop stop-color="#FFF" offset="0%"/><stop stop-color="#CCC" offset="100%"/></linearGradient></defs><g id="Berlin" stroke="none" stroke-width="1" fill="none" fill-rule="evenodd"><g id="bb"><path d="M270.82 382.042h113.658L453 407.821V480l-68.522-25.507H270.82m-29.638-72.45v72.45H127.25L59 480v-72.18l68.25-25.778M225.41 91.97l31.27 31.476 31.542-31.476-31.542-31.477-31.27 31.477zM124.14 352h264.88L384 382.468H126.644L124.14 352z" id="bb-bg" fill="url(#a)"/><path d="M270.82 382.042h113.658L453 407.821V480l-68.522-25.507H270.82M256.68 32L316.5 91.697l-31.541 31.477v9.226c21.753-.362 41.149 2.487 58.189 8.547l25.56 9.09-59.821 59.698 22.568 22.522 64.444-64.31c12.689 9.768 20.257 20.984 22.704 33.647l3.671 18.995v50.471c-3.263 20.08-9.608 36.858-19.034 50.336L389.1 341.61v10.854H123.988V339.17c-14.502-17.186-23.566-32.743-27.191-46.672l-5.439-20.894V221.13c.182-22.793 7.387-40.205 21.617-52.235 14.23-12.03 29.82-20.758 46.77-26.185 16.948-5.427 32.493-8.502 46.632-9.226l21.21-1.085v-8.955L196.586 92.24m44.594 289.802v72.451H127.25L59 480v-72.18l68.25-25.778M225.41 91.97l31.27 31.476 31.542-31.476-31.542-31.477" fill="#000"/></g></g></svg>