<svg width="512" height="512" viewBox="0 0 512 512" xmlns="http://www.w3.org/2000/svg"><defs><linearGradient x1="50%" y1="35.945%" x2="81.291%" y2="76.295%" id="a"><stop stop-color="#FFF" offset="0%"/><stop stop-color="#CCC" offset="100%"/></linearGradient></defs><g id="Berlin" stroke="none" stroke-width="1" fill="none" fill-rule="evenodd"><g id="bn"><path d="M202.711 136.857v43.83h44.963" id="bn-bb" fill="url(#a)"/><path d="M202.711 136.857v43.83h44.963m3.053-141.752l.277-6.935 57.73 57.7c38.486 12.575 67.767 27.37 87.843 44.383 20.075 17.014 34.415 33.242 43.02 48.684 8.603 15.441 13.321 28.572 14.154 39.39L455 238.385V480H86.142v-22.47c3.886-14.424 14.109-25.613 30.669-33.565 16.56-7.952 34-13.73 52.317-17.337 18.318-3.606 34.832-5.733 49.542-6.38l22.065-.971 26.367-30.514v-25.798h-22.204c-18.873-15.35-32.75-30.884-41.632-46.603l-73.827 38.28h-26.644L57 292.202v-22.47l90.757-86.27v-9.987h-9.991v-14.148c7.956-8.322 16.375-16.597 25.256-24.827 8.882-8.23 17.486-14.748 25.812-19.557 16.653-9.431 31.131-15.164 43.436-17.198l18.457-3.052" fill="#000"/></g></g></svg>