<svg width="512" height="512" viewBox="0 0 512 512" xmlns="http://www.w3.org/2000/svg"><defs><linearGradient x1="50%" y1="35.945%" x2="81.291%" y2="76.295%" id="a"><stop stop-color="#FFF" offset="0%"/><stop stop-color="#CCC" offset="100%"/></linearGradient></defs><g id="Berlin" stroke="none" stroke-width="1" fill="none" fill-rule="evenodd"><g id="bq"><path d="M80.022 403.276l176.375-38.382 175.74 38.382v27.36H80.023v-27.36z" id="bq-bg" fill="url(#a)"/><path d="M432.111 403.303H316.92c-8.676 0-19.06-4.015-31.152-12.045-12.091-8.03-22.014-16.751-29.767-26.165-7.753 9.414-17.722 18.136-29.906 26.165-12.183 8.03-22.521 12.045-31.013 12.045H79.889v-10.245L27 169.612c17.722 29.903 32.629 47.901 44.72 53.992 12.092 6.092 23.86 17.998 35.305 35.719 5.908-33.227 11.077-59.208 15.507-77.944 4.43-18.735 9.046-41.025 13.845-66.867l70.057 155.61L256 32l49.566 238.121 70.057-155.61 25.475 146.75c9.969-16.06 22.106-27.596 36.413-34.61 14.307-7.015 30.136-26.028 47.489-57.04l-52.889 223.447m0 37.38V480H79.89v-49.562h107.439c9.599 0 20.998-2.492 34.197-7.476 13.2-4.984 24.691-13.568 34.475-25.75 6.092 7.383 15.137 14.72 27.137 22.012 11.999 7.291 25.844 11.029 41.535 11.214h107.44" fill="#000"/></g></g></svg>