<svg width="512" height="512" viewBox="0 0 512 512" xmlns="http://www.w3.org/2000/svg"><defs><linearGradient x1="50%" y1="35.945%" x2="81.291%" y2="76.295%" id="a"><stop stop-color="#FFF" offset="0%"/><stop stop-color="#CCC" offset="100%"/></linearGradient></defs><g id="Berlin" stroke="none" stroke-width="1" fill="none" fill-rule="evenodd"><g id="wk"><path d="M344.473 400.051c32.18 0 57.268-7.852 75.263-23.556 17.995-15.705 29.562-26.317 34.704-31.837 7.045-7.614 11.33-14.896 12.853-21.843l2.285-10.422v-55.68c0-13.514-3.856-26.696-11.568-39.545-7.712-12.85-15.471-22.605-23.279-29.267-11.806-9.709-24.087-17.275-36.845-22.7-12.759-5.425-22.184-8.138-28.278-8.138h-59.124l-43.13 175.031v46.257l21.993 11.564c14.662 7.709 33.038 11.088 55.126 10.136m-52.555-288.388c-3.618 3.427-8.426 6.853-14.424 10.28-5.999 3.426-12.996 5.14-20.994 5.14-13.9 0-25.611-5.14-35.132-15.42h-2.57v23.129l30.847 117.068h13.71l30.848-117.068v-23.129m-125.39 287.531c11.425 0 21.85-1.047 31.276-3.14 9.425-2.094 17.566-4.474 24.42-7.139 6.665-2.474 11.854-4.806 15.567-6.995l5.57-3.284v-46.542l-42.558-175.03h-61.125c-1.142 0-6.379 1.094-15.709 3.283s-19.708 6.757-31.133 13.705C83.695 181 72.84 191.184 62.559 204.604c-10.283 13.42-16.757 31.361-19.423 53.823v53.966c5.332 26.65 21.327 47.826 47.986 63.53 26.658 15.705 52.555 23.462 77.69 23.271m87.688-1.998c-41.702 23.794-77.929 31.408-108.681 22.842L101.69 407.19v51.11h309.62v-51.11l-46.272 12.85c-30.847 8.565-67.027.951-108.538-22.843m0-344.352c-18.09 0-27.135 8.851-27.135 26.554 0 17.894 9.045 26.84 27.135 26.84 18.09 0 27.135-8.946 27.135-26.84 0-17.703-9.045-26.554-27.135-26.554" id="wk-bg" fill="url(#a)"/><path d="M344.473 400.051c32.18 0 57.268-7.852 75.263-23.556 17.995-15.705 29.562-26.317 34.704-31.837 7.045-7.614 11.33-14.896 12.853-21.843l2.285-10.422v-55.68c0-13.514-3.856-26.696-11.568-39.545-7.712-12.85-15.471-22.605-23.279-29.267-11.806-9.709-24.087-17.275-36.845-22.7-12.759-5.425-22.184-8.138-28.278-8.138h-59.124l-43.13 175.031v46.257l21.993 11.564c14.662 7.709 33.038 11.088 55.126 10.136m-52.555-288.388c-3.618 3.427-8.426 6.853-14.424 10.28-5.999 3.426-12.996 5.14-20.994 5.14-13.9 0-25.611-5.14-35.132-15.42h-2.57v23.129l30.847 117.068h13.71l30.848-117.068v-23.129m-125.39 287.531c11.425 0 21.85-1.047 31.276-3.14 9.425-2.094 17.566-4.474 24.42-7.139 6.665-2.474 11.854-4.806 15.567-6.995l5.57-3.284v-46.542l-42.558-175.03h-61.125c-1.142 0-6.379 1.094-15.709 3.283s-19.708 6.757-31.133 13.705C83.695 181 72.84 191.184 62.559 204.604c-10.283 13.42-16.757 31.361-19.423 53.823v53.966c5.332 26.65 21.327 47.826 47.986 63.53 26.658 15.705 52.555 23.462 77.69 23.271m87.688-1.998c-41.702 23.794-77.929 31.408-108.681 22.842L101.69 407.19v51.11h309.62v-51.11l-46.272 12.85c-30.847 8.565-67.027.951-108.538-22.843m43.987-299.238h19.422v37.405h51.413l16.852 3.997c11.235 2.665 23.898 8.138 37.989 16.418 14.09 8.28 27.563 20.225 40.416 35.834 12.853 15.61 20.993 36.358 24.421 62.247v57.677l-6.284 24.699c-4.189 16.465-21.136 34.977-50.841 55.536V480H79.125v-88.23c-29.895-20.558-46.89-39.07-50.984-55.535L22 311.536v-57.677c3.237-25.889 11.282-46.637 24.136-62.247 12.853-15.609 26.372-27.553 40.559-35.834 14.186-8.28 26.896-13.753 38.13-16.418l16.853-3.997h51.413V97.958h19.422c-2.475-5.14-3.713-10.85-3.713-17.132 0-12.944 4.57-24.318 13.71-34.121S242.98 32 256.5 32c13.33 0 24.612 4.902 33.847 14.705 9.235 9.803 13.853 21.177 13.853 34.121 0 6.282-1.238 11.992-3.713 17.132M256.5 52.844c-18.09 0-27.135 8.851-27.135 26.554 0 17.894 9.045 26.84 27.135 26.84 18.09 0 27.135-8.946 27.135-26.84 0-17.703-9.045-26.554-27.135-26.554" fill="#000"/></g></g></svg>