<svg width="512" height="512" viewBox="0 0 512 512" xmlns="http://www.w3.org/2000/svg"><defs><linearGradient x1="50%" y1="35.945%" x2="81.291%" y2="76.295%" id="a"><stop stop-color="#FFF" offset="0%"/><stop stop-color="#CCC" offset="100%"/></linearGradient></defs><g id="Berlin" stroke="none" stroke-width="1" fill="none" fill-rule="evenodd"><g id="wn"><path d="M272.098 111.891l-28.449 5.548c-18.965 3.699-33.166 8.507-42.603 14.425-16.838 10.171-32.103 24.134-45.795 41.887h10.824v20.25l-89.924 86.826 38.578 36.894 93.256-48.545c7.4 9.062 15.172 19.095 23.313 30.098 8.142 11.004 16.098 18.817 23.87 23.44h33.027v54.37l-38.579 42.998-18.179.555c-12.12.37-25.95 1.618-41.493 3.744a308.177 308.177 0 00-45.795 9.848c-14.987 4.438-25.349 10.726-31.085 18.863v4.993l318.622-.554V244.488l-.971-14.702c-.648-9.802-4.857-21.684-12.629-35.646-7.77-13.962-20.723-28.71-38.856-44.245-18.133-15.535-44.592-29.035-79.378-40.5l-27.754-26.908" id="wn-bg" fill="url(#a)"/><path d="M250.727 39.212l.277-7.212 57.73 57.7c38.486 12.575 67.767 27.37 87.843 44.383 20.075 17.014 34.415 33.288 43.02 48.822 8.603 15.535 13.321 28.665 14.154 39.391l1.249 16.09V480H86.142v-22.47c3.886-14.424 14.109-25.566 30.669-33.426 16.56-7.86 34-13.593 52.317-17.199 18.318-3.606 34.832-5.733 49.542-6.38l22.065-.97 26.367-30.792v-25.798h-22.204c-18.873-15.35-32.75-30.884-41.632-46.603l-73.827 38.28h-26.644L57 292.479v-22.47l90.757-86.27v-9.987h-9.991v-14.147a498.04 498.04 0 0125.256-25.105c8.882-8.23 17.486-14.748 25.812-19.557 16.653-9.431 31.131-15.164 43.436-17.198l18.457-3.052m-44.963 44.939l39.134 38.281h-39.134m66.334-66.021l-28.449 5.548c-18.965 3.699-33.166 8.507-42.603 14.425-16.838 10.171-32.103 24.134-45.795 41.887h10.824v20.25l-89.924 86.826 38.578 36.894 93.256-48.545c7.4 9.062 15.172 19.095 23.313 30.098 8.142 11.004 16.098 18.817 23.87 23.44h33.027v54.37l-38.579 42.998-18.179.555c-12.12.37-25.95 1.618-41.493 3.744a308.177 308.177 0 00-45.795 9.848c-14.987 4.438-25.349 10.726-31.085 18.863v4.993l318.622-.554V244.488l-.971-14.702c-.648-9.802-4.857-21.684-12.629-35.646-7.77-13.962-20.723-28.71-38.856-44.245-18.133-15.535-44.592-29.035-79.378-40.5l-27.754-26.908" fill="#000"/></g></g></svg>