<svg width="512" height="512" viewBox="0 0 512 512" xmlns="http://www.w3.org/2000/svg"><defs><linearGradient x1="50%" y1="35.945%" x2="81.291%" y2="76.295%" id="a"><stop stop-color="#FFF" offset="0%"/><stop stop-color="#CCC" offset="100%"/></linearGradient></defs><g id="Berlin" stroke="none" stroke-width="1" fill="none" fill-rule="evenodd"><g id="wr"><path d="M91.89 32h86.94v33.233h34.2V32.32h87.26v32.913h31.643V32h89.177v126.22H91.89V32zM66 391.167h381V480H66v-88.833zm54.273-.636l37.385-233.203H353.43l40.414 233.305-273.57-.102z" id="wr-bg" fill="url(#a)"/><path d="M91.89 32h86.94v33.233h34.2V32.32h87.26v32.913h31.643V32h89.177v126.22H91.89m20.456-104.171v81.803h284.792V54.049h-42.831V87.6h-78.31V54.049h-41.871V87.6h-77.67V54.049m-22.375 104.17L97.324 391.168h22.374l36.758-232.947m195.933 0l40.913 232.947h22.374L374.763 158.22M66 391.167h381V480H66m20.456-66.146v42.18h338.17v-42.18" fill="#000"/></g></g></svg>