<?xml version="1.0" encoding="UTF-8" standalone="no"?>
<!DOCTYPE svg PUBLIC "-//W3C//DTD SVG 1.1//EN" "http://www.w3.org/Graphics/SVG/1.1/DTD/svg11.dtd">
<svg width="100%" height="100%" viewBox="0 0 297 206" version="1.1" xmlns="http://www.w3.org/2000/svg" xmlns:xlink="http://www.w3.org/1999/xlink" xml:space="preserve" xmlns:serif="http://www.serif.com/" style="fill-rule:evenodd;clip-rule:evenodd;stroke-linejoin:round;stroke-miterlimit:10;">
    <g transform="matrix(1,0,0,1,-1127.9,-348.757)">
        <g transform="matrix(1.11437,0,0,1.11437,-60.0578,-109.811)">
            <g id="line-10" serif:id="line 10" transform="matrix(1,0,0,1,1154.64,417.113)">
                <path d="M0,173.574C-3.542,87.848 -67.658,64.47 -80.411,84.662C-91.409,102.074 -66.24,120.439 -25.858,120.439C49.239,120.439 92.65,0 44.388,0C-3.875,0 39.483,120.439 114.58,120.439C154.962,120.439 180.131,102.074 169.133,84.662C156.38,64.47 92.264,87.848 88.722,173.574C88.722,173.574 66.623,164.516 44.361,164.516C22.099,164.516 0,173.574 0,173.574Z" style="fill:none;stroke:rgb(231,193,87);stroke-width:11.22px;"/>
            </g>
        </g>
    </g>
</svg>
