<?xml version="1.0" encoding="UTF-8" standalone="no"?>
<!DOCTYPE svg PUBLIC "-//W3C//DTD SVG 1.1//EN" "http://www.w3.org/Graphics/SVG/1.1/DTD/svg11.dtd">
<svg width="100%" height="100%" viewBox="0 0 253 198" version="1.1" xmlns="http://www.w3.org/2000/svg" xmlns:xlink="http://www.w3.org/1999/xlink" xml:space="preserve" xmlns:serif="http://www.serif.com/" style="fill-rule:evenodd;clip-rule:evenodd;stroke-linejoin:round;stroke-miterlimit:10;">
    <g transform="matrix(1,0,0,1,-21.3676,-660.208)">
        <g transform="matrix(1.11437,0,0,1.11437,-60.0578,-109.811)">
            <g id="line-6" serif:id="line 6" transform="matrix(1,0,0,1,21.0795,-19.1317)">
                <g transform="matrix(1,0,0,1,128.038,858.25)">
                    <path d="M0,-60.922C-17.183,-78.106 -63.644,-84.131 -69.887,-39.784C-76.13,4.563 -27.434,21.42 -27.434,21.42L-24.22,23.209C-17.485,9.646 7.558,-0.431 37.439,-0.431C67.319,-0.431 92.363,9.646 99.097,23.209L102.313,21.42C102.313,21.42 151.009,4.563 144.766,-39.784C138.522,-84.131 92.062,-78.106 74.879,-60.922" style="fill:none;stroke:rgb(231,193,87);stroke-width:11.22px;"/>
                </g>
                <g transform="matrix(0,-1,-1,-0,165.482,715.732)">
                    <circle cx="-11.237" cy="0" r="11.237" style="fill:none;stroke:rgb(231,193,87);stroke-width:11.22px;"/>
                </g>
                <g transform="matrix(1,0,0,1,165.477,753.156)">
                    <path d="M0,104.663C9.261,104.663 18.049,105.639 25.981,107.379C67.245,53.652 12.826,4.642 0,-2.716C-12.826,4.642 -67.245,53.652 -25.982,107.377C-18.049,105.639 -9.261,104.663 0,104.663Z" style="fill:none;stroke:rgb(231,193,87);stroke-width:11.22px;"/>
                </g>
            </g>
        </g>
    </g>
</svg>
